<svg width="126" height="30" viewBox="0 0 126 30" fill="none" xmlns="http://www.w3.org/2000/svg">
<path d="M67.4547 9.584C67.3907 9.808 67.3267 10.064 67.2627 10.352C67.1987 10.6293 67.14 10.9173 67.0867 11.216C67.044 11.5147 67.012 11.808 66.9907 12.096C66.98 12.3733 66.9907 12.6293 67.0227 12.864C67.0227 13.0773 66.964 13.232 66.8467 13.328C66.7294 13.4133 66.628 13.4453 66.5427 13.424C66.3934 13.392 66.276 13.312 66.1907 13.184C66.1054 13.0453 66.0414 12.9067 65.9987 12.768C65.956 12.6187 65.9347 12.4053 65.9347 12.128C65.9454 11.8507 65.9667 11.552 65.9987 11.232C66.0307 10.9013 66.0734 10.5707 66.1267 10.24C66.18 9.90933 66.2387 9.61067 66.3027 9.344C66.1747 9.344 66.0254 9.37067 65.8547 9.424C65.684 9.46667 65.5027 9.52533 65.3107 9.6C65.1294 9.67467 64.9427 9.76 64.7507 9.856C64.5694 9.94133 64.3987 10.0213 64.2387 10.096C64.1214 10.1493 63.972 10.1493 63.7907 10.096C63.62 10.032 63.4974 9.94133 63.4227 9.824C63.348 9.70667 63.364 9.59467 63.4707 9.488C63.5774 9.37067 63.6894 9.26933 63.8067 9.184C63.956 9.07733 64.1374 8.976 64.3507 8.88C64.5747 8.77333 64.804 8.67733 65.0387 8.592C65.2734 8.50667 65.508 8.44267 65.7427 8.4C65.9774 8.34667 66.1854 8.32 66.3667 8.32C66.7827 8.34133 67.0867 8.46933 67.2787 8.704C67.4814 8.93867 67.54 9.232 67.4547 9.584ZM70.8627 12.128C70.8627 12.3093 70.8307 12.432 70.7667 12.496C70.7027 12.5493 70.6067 12.576 70.4787 12.576C70.436 12.576 70.3827 12.5653 70.3187 12.544C70.2547 12.5227 70.1907 12.4907 70.1267 12.448C70.0627 12.3947 70.004 12.336 69.9507 12.272C69.908 12.208 69.8814 12.1333 69.8707 12.048C69.828 11.5253 69.8014 11.04 69.7907 10.592C69.78 10.144 69.7747 9.71733 69.7747 9.312C69.7747 8.90667 69.7854 8.52267 69.8067 8.16C69.828 7.78667 69.8494 7.41867 69.8707 7.056C69.8707 6.93867 69.9187 6.84267 70.0147 6.768C70.1107 6.68267 70.2174 6.64 70.3347 6.64C70.5054 6.64 70.6387 6.72533 70.7347 6.896C70.8414 7.06667 70.8894 7.22667 70.8787 7.376C70.8574 7.824 70.836 8.24 70.8147 8.624C70.804 9.008 70.7987 9.38667 70.7987 9.76C70.7987 10.1333 70.804 10.512 70.8147 10.896C70.8254 11.2693 70.8414 11.68 70.8627 12.128ZM78.8396 7.472C78.8502 7.38667 78.8876 7.296 78.9516 7.2C79.0156 7.09333 79.1222 7.04 79.2716 7.04C79.4636 7.072 79.6129 7.184 79.7196 7.376C79.8369 7.568 79.8796 7.776 79.8476 8C79.7942 8.30933 79.7516 8.672 79.7196 9.088C79.6982 9.504 79.6822 9.92533 79.6716 10.352C79.6609 10.7787 79.6556 11.1893 79.6556 11.584C79.6556 11.968 79.6609 12.288 79.6716 12.544C79.6716 12.7787 79.6289 12.9707 79.5436 13.12C79.4582 13.2587 79.3676 13.328 79.2716 13.328C79.1756 13.328 79.0902 13.3013 79.0156 13.248C78.9409 13.184 78.8716 13.1093 78.8076 13.024C78.7542 12.928 78.7116 12.8267 78.6796 12.72C78.6476 12.6133 78.6316 12.5173 78.6316 12.432C78.6102 12.1013 78.5942 11.7173 78.5836 11.28C78.5836 10.8427 78.5942 10.384 78.6156 9.904C78.2102 10.2133 77.7622 10.5013 77.2716 10.768C76.7809 11.0347 76.2636 11.2587 75.7196 11.44C75.5062 11.5147 75.2929 11.52 75.0796 11.456C74.8769 11.3813 74.7649 11.2747 74.7436 11.136C74.7329 11.0613 74.7489 10.992 74.7916 10.928C74.8342 10.864 74.8822 10.8107 74.9356 10.768C74.9889 10.7147 75.0476 10.6773 75.1116 10.656C75.1756 10.624 75.2236 10.5973 75.2556 10.576C75.5436 10.448 75.8476 10.3147 76.1676 10.176C76.4982 10.0267 76.8182 9.86667 77.1276 9.696C77.4476 9.52533 77.7409 9.34933 78.0076 9.168C78.2849 8.98667 78.5142 8.79467 78.6956 8.592C78.7276 8.18667 78.7756 7.81333 78.8396 7.472ZM73.8956 11.68C73.7462 11.7867 73.5649 11.8613 73.3516 11.904C73.1489 11.9467 72.9409 11.9413 72.7276 11.888C72.4182 11.8027 72.2102 11.6213 72.1036 11.344C72.0076 11.056 71.9756 10.7413 72.0076 10.4C72.0289 10.208 72.0662 10.016 72.1196 9.824C72.1836 9.632 72.2529 9.45067 72.3276 9.28C72.4129 9.10933 72.5089 8.96533 72.6156 8.848C72.7222 8.72 72.8342 8.624 72.9516 8.56C73.0369 8.51733 73.1116 8.50133 73.1756 8.512C73.2502 8.52267 73.3089 8.544 73.3516 8.576C73.4049 8.608 73.4476 8.64533 73.4796 8.688C73.5222 8.73067 73.5596 8.768 73.5916 8.8C73.6876 8.68267 73.7942 8.58133 73.9116 8.496C74.0289 8.4 74.1889 8.30933 74.3916 8.224C74.8929 8.04267 75.4156 7.91467 75.9596 7.84C76.5142 7.76533 77.0529 7.824 77.5756 8.016C77.6609 8.048 77.7142 8.096 77.7356 8.16C77.7569 8.224 77.7622 8.27733 77.7516 8.32C77.7302 8.43733 77.6716 8.52267 77.5756 8.576C77.4796 8.61867 77.3729 8.64533 77.2556 8.656C76.9676 8.64533 76.6742 8.656 76.3756 8.688C76.0876 8.70933 75.8049 8.752 75.5276 8.816C75.2609 8.86933 75.0049 8.93867 74.7596 9.024C74.5142 9.10933 74.2956 9.19467 74.1036 9.28C74.2316 9.472 74.3169 9.68533 74.3596 9.92C74.4022 10.1547 74.4076 10.3893 74.3756 10.624C74.3542 10.848 74.3009 11.056 74.2156 11.248C74.1302 11.44 74.0236 11.584 73.8956 11.68ZM73.7356 10.208C73.7462 10.1333 73.7462 10.0533 73.7356 9.968C73.7249 9.872 73.7089 9.78667 73.6876 9.712C73.6769 9.63733 73.6556 9.57333 73.6236 9.52C73.6022 9.46667 73.5862 9.44 73.5756 9.44C73.4796 9.504 73.3889 9.60533 73.3036 9.744C73.2289 9.872 73.1649 10.016 73.1116 10.176C73.0689 10.3253 73.0422 10.4747 73.0316 10.624C73.0209 10.7733 73.0316 10.8907 73.0636 10.976C73.0956 10.9973 73.1382 11.0027 73.1916 10.992C73.2556 10.9813 73.3196 10.9547 73.3836 10.912C73.4582 10.8587 73.5276 10.7787 73.5916 10.672C73.6556 10.5547 73.7036 10.4 73.7356 10.208ZM89.6673 13.152C89.678 13.28 89.646 13.3973 89.5713 13.504C89.5073 13.6 89.4006 13.648 89.2513 13.648C89.07 13.648 88.9366 13.5467 88.8513 13.344C88.7766 13.1307 88.7233 12.896 88.6913 12.64C88.67 12.48 88.654 12.272 88.6433 12.016C88.6433 11.76 88.6486 11.4933 88.6593 11.216C88.67 10.9387 88.686 10.6773 88.7073 10.432C88.7286 10.1867 88.75 9.98933 88.7713 9.84C88.462 9.94667 88.1793 10.0587 87.9233 10.176C87.6673 10.2827 87.4113 10.3947 87.1553 10.512C87.0593 10.5653 86.942 10.5813 86.8033 10.56C86.814 10.8693 86.83 11.168 86.8513 11.456C86.8726 11.7333 86.9046 11.9787 86.9473 12.192C86.9686 12.3733 86.942 12.5173 86.8673 12.624C86.8033 12.7307 86.702 12.7947 86.5633 12.816C86.414 12.8373 86.2966 12.7627 86.2113 12.592C86.126 12.4213 86.062 12.2453 86.0193 12.064C85.9766 11.8613 85.934 11.584 85.8913 11.232C85.8593 10.88 85.8326 10.512 85.8113 10.128C85.8006 9.744 85.8006 9.376 85.8113 9.024C85.822 8.66133 85.8433 8.37333 85.8753 8.16C85.918 7.95733 85.9713 7.80267 86.0353 7.696C86.0993 7.57867 86.2006 7.50933 86.3393 7.488C86.5206 7.456 86.6646 7.504 86.7713 7.632C86.8886 7.74933 86.9366 7.91467 86.9153 8.128C86.8726 8.32 86.8406 8.54933 86.8193 8.816C86.8086 9.08267 86.798 9.36533 86.7873 9.664C86.9686 9.55733 87.1606 9.456 87.3633 9.36C87.5766 9.25333 87.7793 9.15733 87.9713 9.072C88.1633 8.98667 88.3393 8.912 88.4993 8.848C88.6593 8.784 88.7873 8.736 88.8833 8.704C88.9046 8.512 88.9313 8.32533 88.9633 8.144C88.9953 7.952 89.0433 7.78133 89.1073 7.632C89.1713 7.504 89.246 7.40267 89.3313 7.328C89.4166 7.25333 89.5073 7.22667 89.6033 7.248C89.71 7.26933 89.79 7.328 89.8433 7.424C89.9073 7.50933 89.95 7.61067 89.9713 7.728C89.9926 7.84533 89.998 7.968 89.9873 8.096C89.9873 8.21333 89.982 8.32 89.9713 8.416C89.9393 8.78933 89.902 9.15733 89.8593 9.52C89.8273 9.872 89.7953 10.24 89.7633 10.624C89.7313 10.9973 89.7046 11.392 89.6833 11.808C89.6726 12.224 89.6673 12.672 89.6673 13.152ZM82.9313 8.16C83.102 8.14933 83.262 8.16 83.4113 8.192C83.5713 8.224 83.6993 8.288 83.7953 8.384C83.902 8.46933 83.9713 8.58667 84.0033 8.736C84.0353 8.88533 84.014 9.06667 83.9393 9.28C83.8433 9.504 83.742 9.75467 83.6353 10.032C83.5286 10.3093 83.4273 10.5973 83.3313 10.896C83.246 11.184 83.1713 11.472 83.1073 11.76C83.054 12.048 83.0273 12.3147 83.0273 12.56C83.3473 12.4 83.5606 12.24 83.6673 12.08C83.774 11.9093 83.806 11.776 83.7633 11.68C83.678 11.4987 83.6086 11.3387 83.5553 11.2C83.5126 11.0613 83.534 10.944 83.6193 10.848C83.7366 10.72 83.8646 10.6933 84.0033 10.768C84.1526 10.832 84.254 10.912 84.3073 11.008C84.478 11.2747 84.5686 11.5307 84.5793 11.776C84.6006 12.0107 84.5686 12.2293 84.4833 12.432C84.398 12.6347 84.2753 12.8213 84.1153 12.992C83.9553 13.152 83.79 13.2853 83.6193 13.392C83.47 13.488 83.31 13.5627 83.1393 13.616C82.9686 13.6587 82.814 13.68 82.6753 13.68C82.5153 13.68 82.3713 13.6213 82.2433 13.504C82.1153 13.376 82.0353 13.1733 82.0033 12.896C81.9713 12.5867 81.9766 12.272 82.0193 11.952C82.0726 11.6213 82.1473 11.296 82.2433 10.976C82.3393 10.656 82.4513 10.3413 82.5793 10.032C82.7073 9.72267 82.8353 9.42933 82.9633 9.152C82.6326 9.20533 82.3606 9.26933 82.1473 9.344C81.934 9.41867 81.678 9.51467 81.3793 9.632C81.2513 9.68533 81.0966 9.696 80.9153 9.664C80.7446 9.632 80.622 9.55733 80.5473 9.44C80.494 9.35467 80.4673 9.28 80.4673 9.216C80.4673 9.152 80.5046 9.07733 80.5793 8.992C80.6113 8.96 80.7126 8.90133 80.8833 8.816C81.054 8.73067 81.2566 8.64533 81.4913 8.56C81.7366 8.464 81.9873 8.37867 82.2433 8.304C82.4993 8.22933 82.7286 8.18133 82.9313 8.16ZM83.1233 7.408C83.006 7.49333 82.894 7.504 82.7873 7.44C82.6806 7.376 82.5846 7.30133 82.4993 7.216C82.3286 7.03467 82.1046 6.82667 81.8273 6.592C81.5606 6.34667 81.294 6.12267 81.0273 5.92C80.9526 5.86667 80.91 5.776 80.8993 5.648C80.8993 5.50933 80.942 5.39733 81.0273 5.312C81.07 5.25867 81.1446 5.216 81.2513 5.184C81.358 5.14133 81.4806 5.16267 81.6193 5.248C81.7153 5.312 81.838 5.408 81.9873 5.536C82.1366 5.65333 82.286 5.792 82.4353 5.952C82.5953 6.10133 82.7393 6.26133 82.8673 6.432C83.006 6.60267 83.1126 6.768 83.1873 6.928C83.2406 7.01333 83.262 7.104 83.2513 7.2C83.2513 7.28533 83.2086 7.35467 83.1233 7.408ZM94.5101 6.064C94.4567 6.23467 94.3821 6.40533 94.2861 6.576C94.1901 6.736 94.0941 6.90133 93.9981 7.072C94.0834 7.02933 94.1794 6.99733 94.2861 6.976C94.4034 6.95467 94.5794 6.94933 94.8141 6.96C95.1127 6.97067 95.4327 7.00267 95.7741 7.056C96.1261 7.10933 96.4621 7.184 96.7821 7.28C97.1021 7.376 97.3901 7.488 97.6461 7.616C97.9021 7.73333 98.0781 7.86667 98.1741 8.016C98.2061 8.112 98.2114 8.192 98.1901 8.256C98.1367 8.34133 98.0514 8.38933 97.9341 8.4C97.6674 8.42133 97.4487 8.416 97.2781 8.384C97.1181 8.34133 96.9261 8.29333 96.7021 8.24C96.4887 8.18667 96.2061 8.13333 95.8541 8.08C95.5021 8.016 95.0167 7.97333 94.3981 7.952C94.2701 7.94133 94.1367 7.94133 93.9981 7.952C93.8701 7.96267 93.7474 7.89867 93.6301 7.76C93.4061 8.10133 93.2567 8.45333 93.1821 8.816C93.1074 9.168 93.0594 9.52533 93.0381 9.888C93.0167 10.048 92.9474 10.1653 92.8301 10.24C92.7234 10.304 92.6167 10.3307 92.5101 10.32C92.4034 10.3093 92.3074 10.2667 92.2221 10.192C92.1474 10.1067 92.0994 9.97333 92.0781 9.792C92.0461 9.42933 92.0674 9.08267 92.1421 8.752C92.2167 8.41067 92.3181 8.08533 92.4461 7.776C92.5847 7.46667 92.7394 7.168 92.9101 6.88C93.0807 6.58133 93.2407 6.29333 93.3901 6.016C93.1341 6.048 92.8301 6.144 92.4781 6.304C92.1261 6.464 91.7847 6.64533 91.4541 6.848C91.3367 6.912 91.2141 6.94933 91.0861 6.96C90.9581 6.97067 90.8514 6.93867 90.7661 6.864C90.6807 6.77867 90.6274 6.68267 90.6061 6.576C90.5847 6.45867 90.6061 6.35733 90.6701 6.272C90.7554 6.176 90.8834 6.06933 91.0541 5.952C91.2247 5.824 91.4167 5.70667 91.6301 5.6C91.8541 5.48267 92.0834 5.376 92.3181 5.28C92.5527 5.184 92.7767 5.10933 92.9901 5.056C93.1607 5.01333 93.3527 4.99733 93.5661 5.008C93.7794 5.01867 93.9661 5.06133 94.1261 5.136C94.2967 5.21067 94.4194 5.32267 94.4941 5.472C94.5794 5.62133 94.5847 5.81867 94.5101 6.064ZM95.7581 16.368C95.6727 16.4 95.5714 16.384 95.4541 16.32C95.3474 16.2667 95.2727 16.1973 95.2301 16.112C95.1447 15.9093 95.0807 15.6267 95.0381 15.264C94.9954 14.9013 94.9741 14.5227 94.9741 14.128C94.9741 13.7227 94.9847 13.3333 95.0061 12.96C95.0381 12.576 95.0807 12.2667 95.1341 12.032C95.1554 11.9467 95.1821 11.8773 95.2141 11.824C94.6701 11.9413 94.1367 12.0747 93.6141 12.224C93.0914 12.3627 92.5901 12.5067 92.1101 12.656C91.8754 12.7307 91.6994 12.736 91.5821 12.672C91.4647 12.608 91.3794 12.496 91.3261 12.336C91.2834 12.1973 91.3101 12.0693 91.4061 11.952C91.5021 11.824 91.6461 11.7227 91.8381 11.648C92.2114 11.5093 92.6701 11.3653 93.2141 11.216C93.7581 11.056 94.3287 10.928 94.9261 10.832C95.5234 10.7253 96.1154 10.6613 96.7021 10.64C97.2887 10.6187 97.8061 10.6667 98.2541 10.784C98.3714 10.816 98.4621 10.8747 98.5261 10.96C98.5901 11.0347 98.6114 11.1093 98.5901 11.184C98.5794 11.2373 98.5421 11.3013 98.4781 11.376C98.4141 11.44 98.3021 11.472 98.1421 11.472C97.7687 11.472 97.3847 11.4933 96.9901 11.536C96.6061 11.568 96.2114 11.6213 95.8061 11.696C96.0621 11.8453 96.1741 12.0907 96.1421 12.432C96.1207 12.6347 96.0994 12.8853 96.0781 13.184C96.0674 13.472 96.0621 13.776 96.0621 14.096C96.0621 14.416 96.0674 14.7307 96.0781 15.04C96.0887 15.3387 96.1047 15.5893 96.1261 15.792C96.1474 15.9093 96.1207 16.0213 96.0461 16.128C95.9714 16.2453 95.8754 16.3253 95.7581 16.368ZM106.333 6.304C106.28 7.136 106.253 7.968 106.253 8.8C106.253 9.62133 106.291 10.4427 106.365 11.264C106.376 11.4347 106.36 11.6213 106.317 11.824C106.275 12.016 106.179 12.1227 106.029 12.144C105.976 12.144 105.917 12.1173 105.853 12.064C105.8 12.0107 105.747 11.9467 105.693 11.872C105.64 11.7867 105.587 11.7013 105.533 11.616C105.491 11.52 105.464 11.4293 105.453 11.344C105.315 10.512 105.235 9.63733 105.213 8.72C105.203 7.792 105.256 6.90667 105.373 6.064C105.395 5.95733 105.469 5.87733 105.597 5.824C105.725 5.77067 105.843 5.75467 105.949 5.776C106.067 5.79733 106.157 5.86133 106.221 5.968C106.296 6.07467 106.333 6.18667 106.333 6.304ZM101.005 9.136C101.165 9.15733 101.309 9.21067 101.437 9.296C101.576 9.38133 101.656 9.58933 101.677 9.92C101.688 10.144 101.709 10.4107 101.741 10.72C101.784 11.0293 101.827 11.3493 101.869 11.68C101.912 12 101.955 12.3147 101.997 12.624C102.051 12.9333 102.093 13.2 102.125 13.424C102.136 13.5733 102.115 13.7067 102.061 13.824C102.008 13.9307 101.955 13.9947 101.901 14.016C101.869 14.0373 101.805 14.0533 101.709 14.064C101.613 14.064 101.523 13.968 101.437 13.776C101.299 13.4453 101.181 13.0933 101.085 12.72C100.989 12.336 100.909 11.9627 100.845 11.6C100.781 11.2267 100.728 10.88 100.685 10.56C100.643 10.2293 100.611 9.952 100.589 9.728C100.504 9.856 100.403 10.016 100.285 10.208C100.179 10.4 100.067 10.6027 99.9493 10.816C99.8426 11.0293 99.736 11.2427 99.6293 11.456C99.5333 11.6693 99.448 11.872 99.3733 12.064C99.3413 12.16 99.272 12.2133 99.1653 12.224C99.0693 12.2347 98.9786 12.1813 98.8933 12.064C98.7653 11.8613 98.7013 11.6427 98.7013 11.408C98.7013 11.2907 98.744 11.12 98.8293 10.896C98.9253 10.6613 99.048 10.4 99.1973 10.112C99.3573 9.824 99.528 9.52533 99.7093 9.216C99.9013 8.90667 100.088 8.61867 100.269 8.352C100.461 8.08533 100.637 7.856 100.797 7.664C100.968 7.472 101.101 7.34933 101.197 7.296C101.24 7.264 101.325 7.248 101.453 7.248C101.592 7.23733 101.725 7.27467 101.853 7.36C101.928 7.424 101.96 7.52 101.949 7.648C101.949 7.776 101.912 7.89333 101.837 8C101.72 8.14933 101.576 8.336 101.405 8.56C101.235 8.77333 101.101 8.96533 101.005 9.136ZM104.637 12.784C104.595 13.0293 104.552 13.2907 104.509 13.568C104.467 13.8453 104.44 14.1013 104.429 14.336C104.429 14.432 104.477 14.48 104.573 14.48C104.979 14.4587 105.395 14.384 105.821 14.256C106.248 14.1173 106.653 13.9787 107.037 13.84C107.304 13.744 107.48 13.7493 107.565 13.856C107.576 13.8667 107.581 13.904 107.581 13.968C107.592 14.0213 107.581 14.0907 107.549 14.176C107.528 14.2507 107.491 14.3307 107.437 14.416C107.384 14.5013 107.304 14.576 107.197 14.64C106.813 14.8533 106.387 15.0453 105.917 15.216C105.448 15.3867 105.011 15.5093 104.605 15.584C104.467 15.616 104.328 15.6267 104.189 15.616C104.051 15.5947 103.928 15.5467 103.821 15.472C103.715 15.3867 103.624 15.2747 103.549 15.136C103.485 14.9867 103.453 14.7947 103.453 14.56C103.464 14.2187 103.491 13.8667 103.533 13.504C103.587 13.1307 103.651 12.8107 103.725 12.544C103.789 12.3413 103.928 12.2613 104.141 12.304C104.269 12.3253 104.387 12.384 104.493 12.48C104.611 12.5653 104.659 12.6667 104.637 12.784ZM114.711 4.304C114.721 4.176 114.759 4.05333 114.823 3.936C114.897 3.81867 115.025 3.76 115.207 3.76C115.356 3.76 115.479 3.82933 115.575 3.968C115.671 4.10667 115.719 4.21867 115.719 4.304C115.719 4.624 115.713 4.96533 115.703 5.328C115.703 5.69067 115.692 6.05867 115.671 6.432C115.66 6.79467 115.644 7.14667 115.623 7.488C115.612 7.82933 115.591 8.13867 115.559 8.416C115.537 8.66133 115.5 8.90667 115.447 9.152C115.404 9.38667 115.34 9.6 115.255 9.792C115.169 9.984 115.063 10.144 114.935 10.272C114.817 10.3893 114.673 10.448 114.503 10.448C114.279 10.448 114.087 10.3893 113.927 10.272C113.767 10.1547 113.633 10.0107 113.527 9.84C113.42 9.65867 113.34 9.46667 113.287 9.264C113.233 9.06133 113.207 8.87467 113.207 8.704C113.207 8.56533 113.228 8.416 113.271 8.256C113.313 8.08533 113.388 7.91467 113.495 7.744C113.601 7.57333 113.745 7.408 113.927 7.248C114.108 7.088 114.343 6.944 114.631 6.816C114.652 6.38933 114.663 5.96267 114.663 5.536C114.673 5.10933 114.689 4.69867 114.711 4.304ZM116.599 10.944C116.663 10.9333 116.748 10.96 116.855 11.024C116.961 11.088 117.009 11.2053 116.999 11.376C116.977 11.5893 116.871 11.7173 116.679 11.76C116.572 11.7813 116.487 11.8027 116.423 11.824C116.369 11.8347 116.316 11.8453 116.263 11.856C116.22 11.8667 116.172 11.8827 116.119 11.904C116.065 11.9147 115.996 11.936 115.911 11.968C115.964 12.1707 116.001 12.4213 116.023 12.72C116.044 13.0187 116.049 13.3227 116.039 13.632C116.039 13.9307 116.028 14.2133 116.007 14.48C115.985 14.7467 115.964 14.944 115.943 15.072C115.911 15.2533 115.825 15.3973 115.687 15.504C115.559 15.6107 115.457 15.6587 115.383 15.648C115.276 15.6373 115.191 15.6107 115.127 15.568C115.073 15.5253 115.031 15.472 114.999 15.408C114.977 15.344 114.961 15.28 114.951 15.216C114.951 15.152 114.951 15.088 114.951 15.024C114.983 14.5867 115.009 14.16 115.031 13.744C115.052 13.3173 115.041 12.816 114.999 12.24C114.732 12.3147 114.439 12.4107 114.119 12.528C113.809 12.6347 113.5 12.7467 113.191 12.864C113.116 12.896 113.015 12.928 112.887 12.96C112.769 12.9813 112.647 12.992 112.519 12.992C112.391 12.992 112.273 12.9707 112.167 12.928C112.06 12.8747 111.985 12.7893 111.943 12.672C111.879 12.4907 111.996 12.3253 112.295 12.176C112.519 12.0693 112.785 11.952 113.095 11.824C113.404 11.6853 113.745 11.5573 114.119 11.44C114.492 11.3227 114.887 11.2213 115.303 11.136C115.729 11.04 116.161 10.976 116.599 10.944ZM114.295 14.64C114.252 14.8853 114.215 15.1573 114.183 15.456C114.161 15.7547 114.156 16 114.167 16.192C114.167 16.288 114.215 16.336 114.311 16.336C114.545 16.336 114.791 16.2987 115.047 16.224C115.313 16.1493 115.575 16.0587 115.831 15.952C116.087 15.8347 116.332 15.7067 116.567 15.568C116.801 15.4293 117.009 15.296 117.191 15.168C117.297 15.0933 117.409 15.04 117.527 15.008C117.655 14.976 117.745 14.992 117.799 15.056C117.82 15.088 117.836 15.1413 117.847 15.216C117.868 15.28 117.873 15.36 117.863 15.456C117.852 15.5413 117.82 15.6373 117.767 15.744C117.724 15.84 117.649 15.9307 117.543 16.016C117.404 16.112 117.228 16.2293 117.015 16.368C116.812 16.5067 116.577 16.64 116.311 16.768C116.055 16.9067 115.772 17.024 115.463 17.12C115.153 17.2267 114.833 17.296 114.503 17.328C114.396 17.3387 114.263 17.3333 114.103 17.312C113.953 17.3013 113.809 17.2587 113.671 17.184C113.532 17.12 113.409 17.024 113.303 16.896C113.207 16.7787 113.153 16.6133 113.143 16.4C113.121 16.0267 113.137 15.632 113.191 15.216C113.244 14.7893 113.313 14.416 113.399 14.096C113.463 13.8933 113.617 13.8133 113.863 13.856C114.065 13.9093 114.193 14.0107 114.247 14.16C114.3 14.3093 114.316 14.4693 114.295 14.64ZM112.311 6.144C112.279 6.816 112.263 7.52 112.263 8.256C112.273 8.98133 112.3 9.63733 112.343 10.224C112.417 10.3947 112.439 10.5547 112.407 10.704C112.385 10.8427 112.289 10.912 112.119 10.912C111.948 10.912 111.788 10.8267 111.639 10.656C111.489 10.4747 111.404 10.2933 111.383 10.112C111.34 9.536 111.313 8.848 111.303 8.048C111.292 7.248 111.313 6.42133 111.367 5.568C111.388 5.35467 111.505 5.264 111.719 5.296C111.9 5.328 112.044 5.41867 112.151 5.568C112.268 5.71733 112.321 5.90933 112.311 6.144ZM113.911 8.736C113.879 8.864 113.895 9.00267 113.959 9.152C114.023 9.29067 114.113 9.36 114.231 9.36C114.316 9.36 114.38 9.30133 114.423 9.184C114.476 9.06667 114.513 8.928 114.535 8.768C114.545 8.62933 114.556 8.49067 114.567 8.352C114.577 8.20267 114.588 8.05333 114.599 7.904C114.439 7.98933 114.295 8.096 114.167 8.224C114.049 8.352 113.964 8.52267 113.911 8.736ZM122.79 12.656C122.64 12.8053 122.475 12.9547 122.294 13.104C122.112 13.2427 121.958 13.3547 121.83 13.44C122.054 13.44 122.24 13.4827 122.39 13.568C122.55 13.6533 122.672 13.76 122.758 13.888C122.854 14.016 122.907 14.16 122.918 14.32C122.939 14.4693 122.918 14.6187 122.854 14.768C122.779 14.9387 122.678 15.1147 122.55 15.296C122.422 15.4667 122.278 15.6373 122.118 15.808C121.968 15.9787 121.819 16.1387 121.67 16.288C121.52 16.4373 121.392 16.5653 121.286 16.672C122.662 16.3093 123.878 16.144 124.934 16.176C125.243 16.2187 125.43 16.288 125.494 16.384C125.568 16.4907 125.584 16.5867 125.542 16.672C125.499 16.7573 125.414 16.848 125.286 16.944C125.168 17.0507 124.971 17.12 124.694 17.152C124.31 17.184 123.974 17.216 123.686 17.248C123.398 17.2907 123.12 17.3333 122.854 17.376C122.587 17.4293 122.304 17.488 122.006 17.552C121.718 17.616 121.382 17.6907 120.998 17.776C120.752 17.8293 120.518 17.808 120.294 17.712C120.07 17.6267 119.915 17.4987 119.83 17.328C119.712 17.072 119.782 16.8 120.038 16.512C120.198 16.3413 120.374 16.1653 120.566 15.984C120.758 15.792 120.939 15.6107 121.11 15.44C121.291 15.2587 121.451 15.0933 121.59 14.944C121.739 14.784 121.846 14.6507 121.91 14.544C121.931 14.4907 121.899 14.4533 121.814 14.432C121.739 14.4107 121.632 14.4053 121.494 14.416C121.366 14.416 121.222 14.4267 121.062 14.448C120.912 14.4693 120.774 14.4907 120.646 14.512C120.464 14.544 120.304 14.528 120.166 14.464C120.027 14.4 119.931 14.32 119.878 14.224C119.824 14.1387 119.824 14.0427 119.878 13.936C119.931 13.8187 120.048 13.7067 120.23 13.6C120.39 13.504 120.55 13.4027 120.71 13.296C120.88 13.1787 121.04 13.0613 121.19 12.944C121.35 12.816 121.488 12.688 121.606 12.56C121.734 12.432 121.835 12.2987 121.91 12.16C121.878 12.0853 121.787 12.0427 121.638 12.032C121.488 12.0213 121.312 12.0267 121.11 12.048C120.918 12.0693 120.715 12.1067 120.502 12.16C120.299 12.2027 120.123 12.2453 119.974 12.288C119.899 12.3093 119.83 12.3093 119.766 12.288C119.702 12.256 119.643 12.2187 119.59 12.176C119.547 12.1227 119.504 12.0693 119.462 12.016C119.43 11.9627 119.408 11.9147 119.398 11.872C119.312 11.6587 119.35 11.5093 119.51 11.424C119.915 11.2533 120.363 11.136 120.854 11.072C121.344 10.9973 121.792 11.0293 122.198 11.168C122.624 11.328 122.896 11.5467 123.014 11.824C123.142 12.1013 123.067 12.3787 122.79 12.656ZM118.39 4.784C118.219 4.76267 118.08 4.704 117.974 4.608C117.867 4.512 117.814 4.41067 117.814 4.304C117.814 4.16533 117.883 4.04267 118.022 3.936C118.16 3.81867 118.304 3.77067 118.454 3.792C118.731 3.81333 119.051 3.83467 119.414 3.856C119.787 3.86667 120.176 3.86667 120.582 3.856C120.742 3.856 120.896 3.89333 121.046 3.968C121.195 4.032 121.27 4.15467 121.27 4.336C121.259 4.48533 121.19 4.58667 121.062 4.64C120.934 4.68267 120.822 4.71467 120.726 4.736C120.555 4.75733 120.39 4.77333 120.23 4.784C120.07 4.79467 119.899 4.80533 119.718 4.816C119.696 4.96533 119.67 5.13067 119.638 5.312C119.606 5.49333 119.574 5.67467 119.542 5.856C119.52 6.02667 119.499 6.18667 119.478 6.336C119.456 6.48533 119.446 6.608 119.446 6.704C119.819 6.55467 120.203 6.39467 120.598 6.224C120.992 6.05333 121.36 5.936 121.702 5.872C121.904 5.82933 122.107 5.824 122.31 5.856C122.512 5.87733 122.646 5.96267 122.71 6.112C122.763 6.22933 122.736 6.31467 122.63 6.368C122.534 6.42133 122.443 6.47467 122.358 6.528L119.462 7.824C119.312 7.89867 119.174 7.93067 119.046 7.92C118.918 7.90933 118.806 7.86667 118.71 7.792C118.624 7.71733 118.555 7.62133 118.502 7.504C118.459 7.376 118.438 7.232 118.438 7.072C118.438 6.79467 118.47 6.45333 118.534 6.048C118.608 5.632 118.688 5.22133 118.774 4.816C118.71 4.816 118.646 4.816 118.582 4.816C118.518 4.80533 118.454 4.79467 118.39 4.784ZM123.702 8.64C123.936 8.68267 124.112 8.74667 124.23 8.832C124.358 8.90667 124.432 9.024 124.454 9.184C124.443 9.32267 124.342 9.41867 124.15 9.472C123.958 9.51467 123.782 9.54133 123.622 9.552C123.184 9.552 122.763 9.56267 122.358 9.584C121.963 9.60533 121.568 9.63733 121.174 9.68C120.79 9.72267 120.395 9.78133 119.99 9.856C119.584 9.92 119.152 10 118.694 10.096C118.502 10.1493 118.347 10.1653 118.23 10.144C118.112 10.112 118.016 10.0693 117.942 10.016C117.878 9.96267 117.835 9.89867 117.814 9.824C117.792 9.74933 117.792 9.68 117.814 9.616C117.856 9.49867 117.926 9.41333 118.022 9.36C118.128 9.296 118.246 9.24267 118.374 9.2C118.726 9.09333 119.12 8.99733 119.558 8.912C119.995 8.82667 120.448 8.75733 120.918 8.704C121.387 8.65067 121.856 8.61867 122.326 8.608C122.806 8.59733 123.264 8.608 123.702 8.64Z" fill="#383124"/>
<g clip-path="url(#clip0_918_1274)">
<path d="M3.2199 27.8649C3.74816 22.2039 9.09371 18.66 13.9085 17.1809C16.8592 16.2748 19.9684 15.9701 23.0324 16.2774C24.5467 16.4284 26.1139 16.6992 27.5503 17.2356C28.876 17.7304 30.1539 18.5584 30.7979 19.902C32.0808 22.5789 29.7891 25.5005 27.4296 26.4535C26.2548 26.9274 24.8738 26.9951 23.694 26.4978C22.5142 26.0004 21.6966 24.9328 21.4627 23.6178C20.9923 20.967 22.4915 18.3501 24.265 16.5716C26.285 14.5432 28.8886 13.2985 31.6129 12.6553C34.8127 11.9002 38.1559 11.9236 41.416 12.1163C44.8498 12.3194 48.2583 12.7985 51.6619 13.3115C52.5046 13.4391 53.3448 13.5693 54.1875 13.6995C54.4265 13.7359 54.7308 13.6787 54.9094 13.499C55.0528 13.3532 55.0377 13.1631 54.8138 13.1266C51.1386 12.5329 47.4559 11.9549 43.7479 11.6346C40.206 11.3299 36.5761 11.1997 33.0543 11.7908C29.9401 12.3142 26.9013 13.4495 24.4109 15.4962C22.2827 17.2434 20.386 19.8369 20.3382 22.7586C20.3181 24.0761 20.7055 25.4067 21.7016 26.2869C22.8437 27.2998 24.4511 27.568 25.9076 27.3988C28.6647 27.0759 31.6129 24.9745 32.1764 22.0164C32.4657 20.4931 31.7613 18.9985 30.652 18.0142C29.4672 16.9622 27.9226 16.4779 26.4259 16.1368C23.1657 15.3972 19.7471 15.353 16.4668 15.9805C13.3953 16.569 10.3439 17.6861 7.75292 19.5193C5.51659 21.1025 3.52679 23.2585 2.65641 25.964C2.44511 26.6202 2.31178 27.2972 2.24889 27.9846C2.21116 28.3882 3.19223 28.1982 3.22493 27.857L3.2199 27.8649Z" fill="#383124"/>
<path d="M2.68913 29.5261L1.83636 26.7347L1.42632 25.3911L1.20495 24.6672C1.15967 24.5161 1.02635 24.2792 1.08169 24.1255C1.14206 23.9485 0.870385 23.8938 0.769763 23.8912C0.55091 23.8834 0.329542 23.9667 0.158485 24.1047C-0.0125729 24.2427 -0.0276662 24.3964 0.0301915 24.5995C0.105658 24.8599 0.188671 25.1176 0.266653 25.3754L0.70939 26.8232L1.62505 29.8203C1.74328 30.2031 2.80233 29.8985 2.68913 29.5261Z" fill="#383124"/>
<path d="M3.26016 29.323C4.28147 28.0861 5.36064 26.9091 6.41969 25.7087C6.55805 25.5525 6.54547 25.3858 6.32158 25.3338C6.0977 25.2817 5.76565 25.365 5.59711 25.5343C4.42234 26.7216 3.33311 28.0106 2.26652 29.2995C2.09797 29.5026 2.4099 29.6198 2.5558 29.6224C2.81491 29.6302 3.0891 29.5261 3.25764 29.3204L3.26016 29.323Z" fill="#383124"/>
</g>
<defs>
<clipPath id="clip0_918_1274">
<rect width="55" height="18.6207" fill="white" transform="translate(0 11.3793)"/>
</clipPath>
</defs>
</svg>
